# vtk DataFile Version 3.0
STAPpy H8 results
ASCII
DATASET UNSTRUCTURED_GRID
POINTS 8 float
0.0000000000e+00 0.0000000000e+00 0.0000000000e+00
1.0000000000e+00 0.0000000000e+00 0.0000000000e+00
1.0000000000e+00 2.0000000000e-01 0.0000000000e+00
0.0000000000e+00 2.0000000000e-01 0.0000000000e+00
0.0000000000e+00 0.0000000000e+00 2.0000000000e-01
1.0000000000e+00 0.0000000000e+00 2.0000000000e-01
1.0000000000e+00 2.0000000000e-01 2.0000000000e-01
0.0000000000e+00 2.0000000000e-01 2.0000000000e-01
CELLS 1 9
8 0 1 2 3 4 5 6 7
CELL_TYPES 1
12
POINT_DATA 8
VECTORS displacement float
0.0000000000e+00 0.0000000000e+00 0.0000000000e+00
-1.6507448483e-07 -8.2354233007e-09 -1.1348962337e-06
-1.6507448483e-07 8.2354233008e-09 -1.1348962337e-06
0.0000000000e+00 0.0000000000e+00 0.0000000000e+00
0.0000000000e+00 0.0000000000e+00 0.0000000000e+00
1.6507448483e-07 8.2354233008e-09 -1.1348962337e-06
1.6507448483e-07 -8.2354233008e-09 -1.1348962337e-06
0.0000000000e+00 0.0000000000e+00 0.0000000000e+00
SCALARS displacement_magnitude float 1
LOOKUP_TABLE default
0.0000000000e+00
1.1468682875e-06
1.1468682875e-06
0.0000000000e+00
0.0000000000e+00
1.1468682875e-06
1.1468682875e-06
0.0000000000e+00
CELL_DATA 1
SCALARS sigma_xx float 1
LOOKUP_TABLE default
-1.1823431123e-11
SCALARS sigma_yy float 1
LOOKUP_TABLE default
-2.7512214729e-11
SCALARS sigma_zz float 1
LOOKUP_TABLE default
2.5011104299e-12
SCALARS tau_xy float 1
LOOKUP_TABLE default
3.3139713196e-11
SCALARS tau_yz float 1
LOOKUP_TABLE default
-2.3533175408e-11
SCALARS tau_xz float 1
LOOKUP_TABLE default
-2.5000000000e+04
